<svg width="1170" height="481" viewBox="0 0 1170 481" fill="none" xmlns="http://www.w3.org/2000/svg">
<path opacity="0.25" d="M91.6587 12.9423C111.889 13.8622 113.728 12.0224 143.154 3.74364C145.913 2.82377 153.821 0.800067 163.384 0.0641738C175.339 -0.855692 180.856 8.34297 188.212 12.9423C195.569 17.5416 198.328 19.3814 201.086 36.8588C203.845 54.3363 201.086 59.8555 221.317 77.3329C241.547 94.8104 250.742 112.288 224.995 137.124C199.247 161.961 202.006 183.117 201.086 208.874C200.167 234.63 180.856 247.508 154.189 241.069C127.522 234.63 122.924 237.39 84.3023 247.508C45.6808 257.627 38.3243 242.909 38.3243 215.313C38.3243 187.717 20.8527 178.518 16.2549 161.961C11.6571 145.403 22.6918 134.365 7.97886 105.849C-6.73408 77.3329 1.54195 62.6151 11.6571 55.2561C21.7722 47.8972 37.4047 46.9773 51.1981 30.4197C64.9915 13.8622 71.4284 12.0224 91.6587 12.9423Z" transform="translate(230 122.928)" fill="url(#paint0_radial)"/>
<path d="M9.53624 157.751C26.6659 136.678 35.1762 118.129 38.6259 81.1225C38.9709 77.4218 39.6088 68.0413 40.9762 63.8479C44.6019 52.7284 50.7957 56.3847 58.0471 34.1458C65.2986 11.9069 82.5037 1.92802 115.856 7.86545C149.208 13.8029 154.018 -4.72116 193.539 1.1744C233.059 7.06996 217.113 20.7386 259.077 22.9193C301.04 25.1 338.018 19.9179 327.317 79.1631C316.615 138.408 358.436 119.633 342.75 171.515C327.063 223.398 364 212.052 343.253 245.477C322.506 278.903 317.529 272.773 299.258 307.414C280.987 342.055 236.305 302.91 201.861 317.937C167.417 332.964 140.351 344.243 129.071 318.431C117.792 292.62 94.0662 250.867 44.6 233.944C-4.86614 217.021 -7.59338 178.824 9.53624 157.751Z" transform="translate(960 199.952) rotate(126.802)" fill="url(#paint1_radial)" fill-opacity="0.1"/>
<path opacity="0.2" d="M141.808 23.1283C165.356 7.09894 175.717 -2.33006 190.788 0.498641C194.242 1.44153 202.421 6.46132 205.859 8.98472C219.988 19.3566 218.104 34.443 227.523 44.8149C236.942 55.1868 253.897 61.7871 257.665 91.96C261.432 122.133 281.213 124.961 292.516 151.363C303.819 177.764 274.619 200.393 255.781 204.165C236.942 207.937 232.233 198.508 202.091 232.452C171.949 266.397 159.704 292.798 135.214 273.94C110.724 255.082 96.5952 264.511 75.8729 251.31C55.1505 238.11 69.2794 229.623 39.1377 208.88C8.99608 188.136 20.2992 181.535 17.4734 161.735C14.6476 141.934 -3.24896 137.219 0.518743 124.961C4.28645 112.704 35.37 96.6745 34.4281 68.3874C33.4862 40.1004 44.7893 27.8427 61.744 29.7285C78.6986 31.6143 118.26 39.1576 141.808 23.1283Z" transform="translate(327.484 32.6934)" fill="url(#paint2_radial)"/>
<path opacity="0.15" d="M118.202 16.6935C144.29 17.88 146.662 15.5071 184.609 4.82871C188.167 3.64222 198.365 1.03196 210.698 0.0827742C226.114 -1.10371 233.229 10.7611 242.716 16.6935C252.202 22.626 255.76 24.9989 259.318 47.5421C262.875 70.0853 259.318 77.2042 285.406 99.7473C311.495 122.291 323.353 144.834 290.15 176.869C256.946 208.904 260.503 236.193 259.318 269.414C258.132 302.636 233.229 319.247 198.839 310.941C164.45 302.636 158.52 306.195 108.715 319.247C58.9092 332.298 49.4224 313.314 49.4224 277.72C49.4224 242.125 26.8913 230.26 20.9621 208.904C15.0328 187.547 29.263 173.309 10.2894 136.528C-8.68416 99.7473 1.98847 80.7636 15.0328 71.2718C28.0771 61.7799 48.2366 60.5934 66.0243 39.2367C83.812 17.88 92.1129 15.5071 118.202 16.6935Z" transform="translate(374.193 82.0693)" fill="url(#paint3_radial)"/>
<defs>
<radialGradient id="paint0_radial" cx="0.5" cy="0.5" r="0.5" gradientUnits="userSpaceOnUse" gradientTransform="translate(240.728) scale(240.728 250.709) rotate(90)">
<stop stop-color="#64ECF5"/>
<stop offset="1" stop-color="#64ECF5" stop-opacity="0"/>
</radialGradient>
<radialGradient id="paint1_radial" cx="0.5" cy="0.5" r="0.5" gradientUnits="userSpaceOnUse" gradientTransform="matrix(-34.885 392.134 -410.872 -36.5537 397.757 -10.8877)">
<stop stop-color="#E751AF"/>
<stop offset="1" stop-color="#E751AF" stop-opacity="0"/>
</radialGradient>
<radialGradient id="paint2_radial" cx="0.5" cy="0.5" r="0.5" gradientUnits="userSpaceOnUse" gradientTransform="translate(295.042) scale(295.042 280.228) rotate(90)">
<stop stop-color="#5F45EA"/>
<stop offset="1" stop-color="#5F45EA" stop-opacity="0"/>
</radialGradient>
<radialGradient id="paint3_radial" cx="0.5" cy="0.5" r="0.5" gradientUnits="userSpaceOnUse" gradientTransform="matrix(-0.605214 409.217 -392.845 -0.580906 351.944 -42.6302)">
<stop offset="0.426041" stop-color="#64ECF5"/>
<stop offset="1" stop-color="#64ECF5" stop-opacity="0"/>
</radialGradient>
</defs>
</svg>
